<svg t="1735293341009" class="icon" viewBox="0 0 1024 1024" version="1.1" xmlns="http://www.w3.org/2000/svg" p-id="4887" width="200" height="200"><path d="M625.777778 17.066667A39.822222 39.822222 0 0 1 665.6 56.888889v910.222222a39.822222 39.822222 0 0 1-39.822222 39.822222H56.888889A39.822222 39.822222 0 0 1 17.066667 967.111111V56.888889A39.822222 39.822222 0 0 1 56.888889 17.066667z m-39.822222 79.644444H96.711111v830.577778h489.244445V96.711111zM341.333333 597.333333a56.888889 56.888889 0 1 1 0 113.777778 56.888889 56.888889 0 0 1 0-113.777778z m170.666667-196.266666v79.644444H170.666667v-79.644444h341.333333z m0-199.111111v79.644444H170.666667V201.955556h341.333333z m455.310222-42.666667a39.822222 39.822222 0 0 1 39.822222 39.822222v768a39.822222 39.822222 0 0 1-39.822222 39.822222h-265.159111v-79.644444h225.336889V238.933333H697.742222V159.288889z m-96 323.982222v79.644445h-170.666666v-79.644445h170.666666z m0-167.992889v79.644445h-170.666666v-79.644445h170.666666z" p-id="4888"></path></svg>
